<svg width="113" height="169" viewBox="0 0 113 169" fill="none" xmlns="http://www.w3.org/2000/svg">
<path d="M17.1539 135.474C31.8227 122.792 43.3591 112.401 51.7631 104.303C60.3199 96.0516 67.4251 87.4948 73.0787 78.6324C78.7323 69.77 81.5591 60.9076 81.5591 52.0452C81.5591 42.8772 79.3435 35.6956 74.9123 30.5004C70.6339 25.3052 63.8343 22.7076 54.5135 22.7076C45.4983 22.7076 38.4695 25.6108 33.4271 31.4172C28.5375 37.0708 25.9399 44.7108 25.6343 54.3372H0.422303C0.880704 36.918 6.0759 23.6244 16.0079 14.4564C26.0927 5.1356 38.8515 0.475198 54.2843 0.475198C70.9395 0.475198 83.9275 5.0592 93.2483 14.2272C102.722 23.3952 107.459 35.6192 107.459 50.8992C107.459 61.9008 104.632 72.5204 98.9783 82.758C93.4775 92.8428 86.8307 101.934 79.0379 110.033C71.3979 117.978 61.6187 127.223 49.7003 137.766L39.3863 146.934H112.043V168.708H0.651504V149.684L17.1539 135.474Z" fill="#FAFAFF"/>
</svg>
