<svg width="112" height="172" viewBox="0 0 112 172" fill="none" xmlns="http://www.w3.org/2000/svg">
<path d="M2.35337 45.1692C3.27017 30.9588 8.69457 19.8808 18.6266 11.9352C28.7114 3.98959 41.5466 0.0167905 57.1322 0.0167905C67.8282 0.0167905 77.0726 1.92679 84.8654 5.7468C92.6582 9.56679 98.541 14.762 102.514 21.3324C106.487 27.9028 108.473 35.3136 108.473 43.5648C108.473 53.0384 105.952 61.1368 100.909 67.86C95.867 74.5832 89.8314 79.0908 82.8026 81.3828V82.2996C91.8178 85.05 98.8466 90.0924 103.889 97.4268C108.931 104.608 111.453 113.853 111.453 125.16C111.453 134.175 109.39 142.197 105.264 149.226C101.139 156.255 95.0266 161.832 86.9282 165.958C78.8298 169.93 69.127 171.917 57.8198 171.917C41.3174 171.917 27.7182 167.715 17.0222 159.311C6.47897 150.754 0.825369 138.53 0.0613686 122.639H25.2734C25.8846 130.737 29.017 137.384 34.6706 142.579C40.3242 147.622 47.9642 150.143 57.5906 150.143C66.9114 150.143 74.093 147.622 79.1354 142.579C84.1778 137.384 86.699 130.737 86.699 122.639C86.699 111.943 83.261 104.379 76.385 99.948C69.6618 95.364 59.2714 93.072 45.2138 93.072H39.2546V71.5272H45.443C57.8198 71.3744 67.217 69.3116 73.6346 65.3388C80.205 61.366 83.4902 55.1012 83.4902 46.5444C83.4902 39.21 81.1218 33.4036 76.385 29.1252C71.6482 24.694 64.925 22.4784 56.2154 22.4784C47.6586 22.4784 41.0118 24.694 36.275 29.1252C31.5382 33.4036 28.7114 38.7516 27.7946 45.1692H2.35337Z" fill="#FAFAFF"/>
</svg>
