<svg width="38" height="27" viewBox="0 0 38 27" fill="none" xmlns="http://www.w3.org/2000/svg">
<path d="M36.5909 4.62193C36.3798 3.82766 35.9638 3.10276 35.3846 2.51977C34.8053 1.93679 34.0831 1.51617 33.2902 1.30001C30.3713 0.515137 18.7043 0.515137 18.7043 0.515137C18.7043 0.515137 7.03726 0.515137 4.11839 1.30001C3.32549 1.51617 2.60326 1.93679 2.024 2.51977C1.44474 3.10276 1.02875 3.82766 0.817679 4.62193C0.0370484 7.55353 0.0370483 13.6671 0.0370483 13.6671C0.0370483 13.6671 0.0370484 19.7806 0.817679 22.7122C1.02875 23.5065 1.44474 24.2314 2.024 24.8143C2.60326 25.3973 3.32549 25.8179 4.11839 26.0341C7.03726 26.819 18.7043 26.819 18.7043 26.819C18.7043 26.819 30.3713 26.819 33.2902 26.0341C34.0831 25.8179 34.8053 25.3973 35.3846 24.8143C35.9638 24.2314 36.3798 23.5065 36.5909 22.7122C37.3715 19.7806 37.3715 13.6671 37.3715 13.6671C37.3715 13.6671 37.3715 7.55353 36.5909 4.62193Z" fill="#5CA369"/>
</svg>
